ffmpeg version 8.1 Copyright (c) 2000-2026 the FFmpeg developers
  built with Apple clang version 17.0.0 (clang-1700.6.4.2)
  configuration: --prefix=/opt/homebrew/Cellar/ffmpeg/8.1 --enable-shared --enable-pthreads --enable-version3 --cc=clang --host-cflags= --host-ldflags= --enable-ffplay --enable-gpl --enable-libsvtav1 --enable-libopus --enable-libx264 --enable-libmp3lame --enable-libdav1d --enable-libvpx --enable-libx265 --enable-openssl --enable-videotoolbox --enable-audiotoolbox --enable-neon
  libavutil      60. 26.100 / 60. 26.100
  libavcodec     62. 28.100 / 62. 28.100
  libavformat    62. 12.100 / 62. 12.100
  libavdevice    62.  3.100 / 62.  3.100
  libavfilter    11. 14.100 / 11. 14.100
  libswscale      9.  5.100 /  9.  5.100
  libswresample   6.  3.100 /  6.  3.100
Input #0, matroska,webm, from '/Users/adpena/Projects/pact/workspace/upstream/comma_video_compression_challenge/videos/0.mkv':
  Metadata:
    SEGMENT         : b0c9d2329ad1606b|2018-07-27--06-03-57/10/video.hevc
    ENCODER         : Lavf60.16.100
  Duration: 00:01:00.00, start: 0.000000, bitrate: 5006 kb/s
  Stream #0:0: Video: hevc (Main), yuv420p(tv), 1164x874, 20 fps, 20 tbr, 1k tbn
    Metadata:
      DURATION        : 00:01:00.000000000
Stream mapping:
  Stream #0:0 (hevc) -> scale:default
  split -> Stream #0:0 (libx265)
  crop:default -> Stream #1:0 (libx265)
Press [q] to stop, [?] for help
x265 [info]: HEVC encoder version 4.1+1-1d117be
x265 [info]: build info [Mac OS X][clang 17.0.0][64 bit] 8bit+10bit+12bit
x265 [info]: using cpu capabilities: NEON Neon_DotProd Neon_I8MM
x265 [info]: Main profile, Level-2.1 (Main tier)
x265 [info]: Thread pool created using 18 threads
x265 [info]: Slices                              : 1
x265 [info]: frame threads / pool features       : 4 / wpp(5 rows)
x265 [warning]: Source height < 720p; disabling lookahead-slices
x265 [info]: Coding QT: max CU size, min CU size : 64 / 8
x265 [info]: Residual QT: max TU size, max depth : 32 / 1 inter / 1 intra
x265 [info]: ME / range / subpel / merge         : hex / 57 / 2 / 3
x265 [info]: Lookahead / bframes / badapt        : 20 / 4 / 2
x265 [info]: b-pyramid / weightp / weightb       : 1 / 1 / 0
x265 [info]: References / ref-limit  cu / depth  : 4 / off / on
x265 [info]: AQ: mode / str / qg-size / cu-tree  : 2 / 1.0 / 32 / 1
x265 [info]: Rate Control / qCompress            : CRF-27.0 / 0.60
x265 [info]: tools: rd=3 psy-rd=2.00 early-skip rskip mode=1 signhide tmvp
x265 [info]: tools: b-intra strong-intra-smoothing deblock sao
Output #0, matroska, to '/var/folders/xr/cdmnz18s68j8sybt6vcwjs200000gn/T/robust_current_archive.M7mT6E/archive/0/base.mkv':
  Metadata:
    SEGMENT         : b0c9d2329ad1606b|2018-07-27--06-03-57/10/video.hevc
    encoder         : Lavf62.12.100
  Stream #0:0: Video: hevc, yuv420p(tv, bt709, progressive), 424x318, q=2-31, 20 fps, 1k tbn
    Metadata:
      encoder         : Lavc62.28.100 libx265
    Side data:
      CPB properties: bitrate max/min/avg: 0/0/0 buffer size: 0 vbv_delay: N/A
x265 [info]: HEVC encoder version 4.1+1-1d117be
x265 [info]: build info [Mac OS X][clang 17.0.0][64 bit] 8bit+10bit+12bit
x265 [info]: using cpu capabilities: NEON Neon_DotProd Neon_I8MM
x265 [info]: Main profile, Level-2 (Main tier)
x265 [info]: Thread pool created using 18 threads
x265 [info]: Slices                              : 1
x265 [info]: frame threads / pool features       : 4 / wpp(3 rows)
x265 [warning]: Source height < 720p; disabling lookahead-slices
x265 [info]: Coding QT: max CU size, min CU size : 64 / 8
x265 [info]: Residual QT: max TU size, max depth : 32 / 1 inter / 1 intra
x265 [info]: ME / range / subpel / merge         : hex / 57 / 2 / 3
x265 [info]: Lookahead / bframes / badapt        : 20 / 4 / 2
x265 [info]: b-pyramid / weightp / weightb       : 1 / 1 / 0
x265 [info]: References / ref-limit  cu / depth  : 4 / off / on
x265 [info]: AQ: mode / str / qg-size / cu-tree  : 2 / 1.0 / 32 / 1
x265 [info]: Rate Control / qCompress            : CRF-23.0 / 0.60
x265 [info]: tools: rd=3 psy-rd=2.00 early-skip rskip mode=1 signhide tmvp
x265 [info]: tools: b-intra strong-intra-smoothing deblock sao
Output #1, matroska, to '/var/folders/xr/cdmnz18s68j8sybt6vcwjs200000gn/T/robust_current_archive.M7mT6E/archive/0/roi.mkv':
  Metadata:
    SEGMENT         : b0c9d2329ad1606b|2018-07-27--06-03-57/10/video.hevc
    encoder         : Lavf62.12.100
  Stream #1:0: Video: hevc, yuv420p(tv, bt709, progressive), 296x174, q=2-31, 20 fps, 1k tbn
    Metadata:
      encoder         : Lavc62.28.100 libx265
    Side data:
      CPB properties: bitrate max/min/avg: 0/0/0 buffer size: 0 vbv_delay: N/A
frame=   50 fps=0.0 q=27.7 q=29.0 size=      27KiB time=00:00:02.40 bitrate=  93.1kbits/s speed=4.74x elapsed=0:00:00.50    frame=  126 fps=125 q=29.9 q=26.1 size=      49KiB time=00:00:06.20 bitrate=  64.6kbits/s speed=6.13x elapsed=0:00:01.01    frame=  194 fps=128 q=28.1 q=27.4 size=     105KiB time=00:00:09.60 bitrate=  89.5kbits/s speed=6.32x elapsed=0:00:01.51    frame=  255 fps=126 q=27.9 q=27.5 size=     136KiB time=00:00:12.65 bitrate=  87.9kbits/s speed=6.26x elapsed=0:00:02.02    frame=  323 fps=128 q=27.9 q=27.4 size=     171KiB time=00:00:16.05 bitrate=  87.2kbits/s speed=6.35x elapsed=0:00:02.52    frame=  396 fps=131 q=28.4 q=23.1 size=     218KiB time=00:00:19.70 bitrate=  90.8kbits/s speed= 6.5x elapsed=0:00:03.03    frame=  466 fps=132 q=32.6 q=27.7 size=     235KiB time=00:00:23.20 bitrate=  83.0kbits/s speed=6.56x elapsed=0:00:03.53    frame=  528 fps=131 q=33.0 q=23.3 size=     256KiB time=00:00:26.30 bitrate=  79.7kbits/s speed=6.52x elapsed=0:00:04.03    frame=  599 fps=132 q=31.3 q=23.3 size=     256KiB time=00:00:29.85 bitrate=  70.3kbits/s speed=6.57x elapsed=0:00:04.54    frame=  669 fps=132 q=26.7 q=26.0 size=     256KiB time=00:00:33.35 bitrate=  62.9kbits/s speed= 6.6x elapsed=0:00:05.05    frame=  748 fps=135 q=32.6 q=27.6 size=     256KiB time=00:00:37.30 bitrate=  56.2kbits/s speed=6.72x elapsed=0:00:05.55    frame=  828 fps=137 q=27.6 q=27.6 size=     256KiB time=00:00:41.30 bitrate=  50.8kbits/s speed=6.82x elapsed=0:00:06.05    frame=  899 fps=137 q=28.1 q=23.5 size=     256KiB time=00:00:44.85 bitrate=  46.8kbits/s speed=6.84x elapsed=0:00:06.55    frame=  975 fps=138 q=30.2 q=27.7 size=     256KiB time=00:00:48.65 bitrate=  43.1kbits/s speed=6.89x elapsed=0:00:07.06    frame= 1040 fps=137 q=28.1 q=27.6 size=     256KiB time=00:00:51.90 bitrate=  40.4kbits/s speed=6.86x elapsed=0:00:07.56    frame= 1101 fps=136 q=32.5 q=27.7 size=     512KiB time=00:00:54.95 bitrate=  76.3kbits/s speed= 6.8x elapsed=0:00:08.07    frame= 1166 fps=136 q=31.6 q=23.5 size=     512KiB time=00:00:58.25 bitrate=  72.0kbits/s speed=6.79x elapsed=0:00:08.58    [out#0/matroska @ 0xac6c10540] video:629KiB audio:0KiB subtitle:0KiB other streams:0KiB global headers:2KiB muxing overhead: 1.917217%
[out#1/matroska @ 0xac6c10b40] video:768KiB audio:0KiB subtitle:0KiB other streams:0KiB global headers:2KiB muxing overhead: 1.571700%
frame= 1200 fps=137 q=32.2 Lq=27.7 size=     642KiB time=00:00:59.90 bitrate=  87.7kbits/s speed=6.83x elapsed=0:00:08.76    
x265 [info]: frame I:     25, Avg QP:26.73  kb/s: 458.57  
x265 [info]: frame P:    236, Avg QP:28.07  kb/s: 191.94  
x265 [info]: frame B:    939, Avg QP:32.12  kb/s: 48.56   
x265 [info]: Weighted P-Frames: Y:5.1% UV:3.8%

encoded 1200 frames in 8.72s (137.66 fps), 85.30 kb/s, Avg QP:31.21
x265 [info]: frame I:     25, Avg QP:22.31  kb/s: 438.81  
x265 [info]: frame P:    262, Avg QP:23.44  kb/s: 217.03  
x265 [info]: frame B:    913, Avg QP:27.11  kb/s: 62.76   
x265 [info]: Weighted P-Frames: Y:9.9% UV:8.0%

encoded 1200 frames in 8.71s (137.76 fps), 104.27 kb/s, Avg QP:26.21
